<?xml version="1.0" encoding="utf-8"?>
<!-- Generator: Adobe Illustrator 25.4.1, SVG Export Plug-In . SVG Version: 6.00 Build 0)  -->
<svg version="1.2" baseProfile="tiny" id="Layer_1" xmlns="http://www.w3.org/2000/svg" xmlns:xlink="http://www.w3.org/1999/xlink"
	 x="0px" y="0px" viewBox="0 0 200 200" overflow="visible" xml:space="preserve">
<path fill="#D5EEF4" d="M73.02,26.21L18.46,67.35c-3.03,2.28-4.02,6.07-2.21,8.47c1.81,2.4,5.72,2.49,8.75,0.2l54.56-41.14
	c3.03-2.28,4.02-6.08,2.21-8.47C79.97,24.02,76.05,23.93,73.02,26.21z"/>
<path fill="#D5EEF4" d="M182.53,34.68l-45.28,52.86c-2.51,2.93-2.7,6.89-0.42,8.84c2.28,1.95,6.16,1.16,8.67-1.78l45.28-52.86
	c2.51-2.93,2.7-6.89,0.42-8.84C188.93,30.95,185.04,31.75,182.53,34.68z"/>
<path fill="#D5EEF4" d="M112.77,145.85l-72.5-5.34c-4.02-0.3-7.46,1.89-7.68,4.88s2.86,5.66,6.89,5.95l72.5,5.34
	c4.02,0.3,7.46-1.89,7.68-4.88C119.88,148.82,116.8,146.15,112.77,145.85z"/>
<path fill="#D5EEF4" d="M193.89,188.85l-24.3-53.65c-1.35-2.98-4.66-4.39-7.39-3.15s-3.86,4.65-2.51,7.63l24.3,53.65
	c1.35,2.98,4.66,4.39,7.39,3.15S195.24,191.83,193.89,188.85z"/>
</svg>
