<?xml version="1.0" encoding="utf-8"?>
<!-- Generator: Adobe Illustrator 25.4.1, SVG Export Plug-In . SVG Version: 6.00 Build 0)  -->
<svg version="1.2" baseProfile="tiny" xmlns="http://www.w3.org/2000/svg" xmlns:xlink="http://www.w3.org/1999/xlink" x="0px"
	 y="0px" viewBox="0 0 608.05 443.28" overflow="visible" xml:space="preserve">
<g id="Layer_1" display="none">
	<polygon display="inline" fill="none" stroke="#000000" stroke-miterlimit="10" points="315.07,-8.14 315.07,150.78 269.06,150.78 
		269.06,71.32 	"/>
	<polyline display="inline" fill="none" stroke="#000000" stroke-miterlimit="10" points="368.9,44.04 309.23,150.78 249.91,150.78 
		353.11,-31.26 411.01,-31.26 368.9,44.04 	"/>
	<polyline display="inline" fill="none" stroke="#000000" stroke-miterlimit="10" points="289.68,44.04 349.35,150.78 
		408.67,150.78 305.47,-31.26 247.57,-31.26 289.68,44.04 	"/>
</g>
<g id="Layer_2">
	<polygon stroke="#000000" stroke-miterlimit="10" points="251.49,16.86 380.3,16.86 153.85,421.88 21.87,421.88 	"/>
	<polygon stroke="#000000" stroke-miterlimit="10" points="380.3,68.3 277.94,245.09 277.94,421.88 380.3,421.88 	"/>
	<polygon stroke="#000000" stroke-miterlimit="10" points="464.95,16.86 411.94,110.35 477.16,225.4 593.76,16.86 	"/>
	<polygon stroke="#000000" stroke-miterlimit="10" points="411.94,342.05 456.58,421.88 588.55,421.88 477.16,225.4 	"/>
	<path stroke="#000000" stroke-miterlimit="10" d="M411.94,110.35"/>
	<g>
	</g>
	<g>
	</g>
	<g>
	</g>
	<g>
	</g>
	<g>
	</g>
	<g>
	</g>
</g>
</svg>
